<svg xmlns="http://www.w3.org/2000/svg" viewBox="0 0 18.3 17.2"><defs><style>.cls-1{fill:#0a3373;}</style></defs><title>Asset 1</title><g id="Layer_2" data-name="Layer 2"><g id="Layer_1-2" data-name="Layer 1"><g id="Layer_1-2-2" data-name="Layer 1-2"><path class="cls-1" d="M3.44,10.22A8.87,8.87,0,0,1,7.91,5.59c3.47-1.8,6.88-3.7,10.37-5.59.15,2.72-.78,4.13-3.11,5.12C11.17,6.83,7.19,8.59,3.44,10.22Z"/><path class="cls-1" d="M15,6.77c-.26,2-1.08,3.26-2.92,3.84-3.41,1.08-6.81,2.23-10,3.27.66-1.59,1.15-2.07,3.69-3.21s5.08-2.25,7.61-3.38C13.87,7.09,14.36,7,15,6.77Z"/><path class="cls-1" d="M12.17,11.8a2.93,2.93,0,0,1-2.36,2.9L0,17.2C3.62,13.85,8.16,13.72,12.17,11.8Z"/></g></g></g></svg>