<svg id="Layer_1" data-name="Layer 1" xmlns="http://www.w3.org/2000/svg" viewBox="0 0 92.15 20"><defs><style>.cls-1{fill:#0a3373;}</style></defs><title>Artboard 1_logo</title><path d="M34.18,17.2H32.45a.73.73,0,0,1-.48-.15.9.9,0,0,1-.28-.36l-.9-2.47h-5l-.9,2.47a.79.79,0,0,1-.26.35.71.71,0,0,1-.48.16H22.39L27.15,5.11h2.29Zm-4-4.56-1.47-4c-.07-.18-.15-.39-.22-.63s-.16-.51-.24-.8c-.07.29-.15.55-.22.8s-.16.47-.23.65l-1.46,4Z"/><path d="M37.52,6.12a1.18,1.18,0,0,1-.11.5,1.22,1.22,0,0,1-.29.41,1.34,1.34,0,0,1-.42.28,1.27,1.27,0,0,1-.52.11,1.22,1.22,0,0,1-.5-.11,1.31,1.31,0,0,1-.7-.69,1.18,1.18,0,0,1-.1-.5A1.3,1.3,0,0,1,35,5.6a1.35,1.35,0,0,1,.28-.41,1.37,1.37,0,0,1,.42-.29,1.39,1.39,0,0,1,.5-.1,1.46,1.46,0,0,1,.52.1,1.37,1.37,0,0,1,.42.29,1.22,1.22,0,0,1,.29.41A1.31,1.31,0,0,1,37.52,6.12Zm-.28,2.5V17.2H35.16V8.62Z"/><path d="M41.29,10.11a3.73,3.73,0,0,1,1-1.21,2,2,0,0,1,1.3-.44,1.6,1.6,0,0,1,1,.26l-.13,1.55a.42.42,0,0,1-.12.21.38.38,0,0,1-.22.06,2.21,2.21,0,0,1-.37,0,2.59,2.59,0,0,0-.48,0,1.66,1.66,0,0,0-.61.1,1.47,1.47,0,0,0-.48.29,2.17,2.17,0,0,0-.38.46,4.34,4.34,0,0,0-.3.61V17.2H39.34V8.62h1.22a.69.69,0,0,1,.44.11.75.75,0,0,1,.17.41Z"/><path d="M48,10.18h.52a1.36,1.36,0,0,0,.53-.09.88.88,0,0,0,.36-.28l3.34-4.22a1.16,1.16,0,0,1,.43-.38,1.45,1.45,0,0,1,.59-.1h1.93l-4.07,5a2.42,2.42,0,0,1-.74.65,1.65,1.65,0,0,1,.5.28,2.18,2.18,0,0,1,.42.47L56,17.2H54a1.29,1.29,0,0,1-.59-.11.87.87,0,0,1-.33-.33l-3.42-4.47a1,1,0,0,0-.37-.32,1.58,1.58,0,0,0-.6-.09H48V17.2H45.76V5.11H48Z"/><path d="M57.86,13.17a4.39,4.39,0,0,0,.24,1.14,2.34,2.34,0,0,0,.48.8,1.93,1.93,0,0,0,.72.46,2.42,2.42,0,0,0,.91.16,2.77,2.77,0,0,0,.87-.12,3.74,3.74,0,0,0,.63-.26l.48-.26a.89.89,0,0,1,.4-.11.41.41,0,0,1,.38.19l.6.75a3.47,3.47,0,0,1-.77.67,4.6,4.6,0,0,1-.89.44,5.26,5.26,0,0,1-.95.23,7.5,7.5,0,0,1-.93.06A4.58,4.58,0,0,1,58.36,17,3.73,3.73,0,0,1,57,16.15a4.2,4.2,0,0,1-.9-1.44,5.71,5.71,0,0,1-.32-2,4.69,4.69,0,0,1,.28-1.65,3.86,3.86,0,0,1,.82-1.35,3.91,3.91,0,0,1,1.29-.91,4.34,4.34,0,0,1,1.73-.33,4.08,4.08,0,0,1,1.5.26,3.31,3.31,0,0,1,1.18.75,3.79,3.79,0,0,1,.77,1.22,4.77,4.77,0,0,1,.28,1.66,1.44,1.44,0,0,1-.1.63.42.42,0,0,1-.39.16Zm3.94-1.25a2.61,2.61,0,0,0-.11-.75,1.91,1.91,0,0,0-.34-.63,1.76,1.76,0,0,0-.57-.42A2,2,0,0,0,60,10a1.91,1.91,0,0,0-1.41.51,2.55,2.55,0,0,0-.66,1.44Z"/><path d="M72.75,8.62,68.08,19.56a.83.83,0,0,1-.24.33.73.73,0,0,1-.44.11H65.86l1.6-3.44L64,8.62h1.82a.58.58,0,0,1,.38.12.73.73,0,0,1,.2.27l1.82,4.44a2.8,2.8,0,0,1,.16.46l.12.46.15-.47c0-.15.11-.3.17-.45L70.53,9a.56.56,0,0,1,.22-.28.61.61,0,0,1,.35-.11Z"/><g id="Layer_1-2" data-name="Layer 1-2"><path class="cls-1" d="M77.3,10.22a8.84,8.84,0,0,1,4.47-4.63c3.46-1.8,6.87-3.7,10.37-5.59.14,2.72-.78,4.13-3.12,5.12C85,6.83,81.05,8.59,77.3,10.22Z"/><path class="cls-1" d="M88.86,6.77c-.26,2-1.08,3.26-2.92,3.84-3.42,1.08-6.82,2.23-10,3.27.67-1.59,1.15-2.07,3.69-3.21s5.09-2.25,7.62-3.38C87.72,7.09,88.22,7,88.86,6.77Z"/><path class="cls-1" d="M86,11.8a2.91,2.91,0,0,1-2.35,2.9l-9.81,2.5C77.48,13.85,82,13.72,86,11.8Z"/></g><g id="Layer_1-2-2" data-name="Layer 1-2"><path class="cls-1" d="M3.13,5.12C.8,4.13-.13,2.72,0,0c3.5,1.89,6.91,3.79,10.38,5.59a8.87,8.87,0,0,1,4.47,4.63C11.11,8.59,7.13,6.83,3.13,5.12Z"/><path class="cls-1" d="M4.89,7.29C7.42,8.42,10,9.53,12.5,10.67s3,1.62,3.69,3.21c-3.16-1-6.56-2.19-10-3.27C4.38,10,3.56,8.78,3.3,6.77,3.94,7,4.43,7.09,4.89,7.29Z"/><path class="cls-1" d="M18.3,17.2,8.49,14.7a2.93,2.93,0,0,1-2.36-2.9C10.14,13.72,14.68,13.85,18.3,17.2Z"/></g></svg>